<svg xmlns="http://www.w3.org/2000/svg" width="1280" height="400" viewBox="0 0 1280 400" role="img" aria-labelledby="bannerTitle bannerDesc">
  <title id="bannerTitle">DayTandem</title>
  <desc id="bannerDesc">A local-first day planner for Windows and macOS.</desc>
  <defs>
    <linearGradient id="bg" x1="0" y1="0" x2="1" y2="1">
      <stop offset="0" stop-color="#ffffff"/>
      <stop offset="1" stop-color="#f3f5f9"/>
    </linearGradient>
    <radialGradient id="glow">
      <stop offset="0" stop-color="#4a57c8" stop-opacity="0.12"/>
      <stop offset="1" stop-color="#4a57c8" stop-opacity="0"/>
    </radialGradient>
    <linearGradient id="accentGrad" x1="0" y1="0" x2="1" y2="1">
      <stop offset="0" stop-color="#4a57c8"/>
      <stop offset="1" stop-color="#0e8f74"/>
    </linearGradient>
    <linearGradient id="deskGrad" x1="0" y1="0" x2="1" y2="1">
      <stop offset="0" stop-color="#2fe0d2"/>
      <stop offset="1" stop-color="#1ab4c8"/>
    </linearGradient>
    <linearGradient id="tileCmd" x1="0" y1="1" x2="1" y2="0">
      <stop offset="0" stop-color="#7cc0ef"/>
      <stop offset="1" stop-color="#63dcc9"/>
    </linearGradient>
  </defs>

  
  <rect width="1280" height="400" rx="20" fill="url(#bg)"/>
  <g><line x1="800" y1="0" x2="800" y2="400" stroke="rgba(5,5,6,0.02)" stroke-width="1"/><line x1="844" y1="0" x2="844" y2="400" stroke="rgba(5,5,6,0.02)" stroke-width="1"/><line x1="888" y1="0" x2="888" y2="400" stroke="rgba(5,5,6,0.03)" stroke-width="1"/><line x1="932" y1="0" x2="932" y2="400" stroke="rgba(5,5,6,0.04)" stroke-width="1"/><line x1="976" y1="0" x2="976" y2="400" stroke="rgba(5,5,6,0.05)" stroke-width="1"/><line x1="1020" y1="0" x2="1020" y2="400" stroke="rgba(5,5,6,0.06)" stroke-width="1"/><line x1="1064" y1="0" x2="1064" y2="400" stroke="rgba(5,5,6,0.06)" stroke-width="1"/><line x1="1108" y1="0" x2="1108" y2="400" stroke="rgba(5,5,6,0.07)" stroke-width="1"/><line x1="1152" y1="0" x2="1152" y2="400" stroke="rgba(5,5,6,0.08)" stroke-width="1"/><line x1="1196" y1="0" x2="1196" y2="400" stroke="rgba(5,5,6,0.09)" stroke-width="1"/><line x1="1240" y1="0" x2="1240" y2="400" stroke="rgba(5,5,6,0.09)" stroke-width="1"/></g>
  <ellipse cx="1023" cy="200" rx="320" ry="220" fill="url(#glow)"/>
  <g transform="translate(-59.48 50.01) scale(1.05)"><rect x="848" y="48" width="40" height="192" rx="14" fill="rgba(5,5,6,0.05)" stroke="rgba(5,5,6,0.11)" stroke-width="1"/><rect x="855" y="63.36" width="26" height="42.24" rx="9" fill="#4a57c8" opacity="0.55"/><rect x="855" y="117.12" width="26" height="49.92" rx="9" fill="#6d79e0" opacity="0.55"/><rect x="855" y="182.4" width="26" height="42.24" rx="9" fill="#0e8f74" opacity="0.55"/><rect x="902" y="48" width="40" height="192" rx="14" fill="rgba(5,5,6,0.05)" stroke="rgba(5,5,6,0.11)" stroke-width="1"/><rect x="909" y="57.6" width="26" height="36.48" rx="9" fill="#6d79e0" opacity="0.55"/><rect x="909" y="105.6" width="26" height="48" rx="9" fill="#0e8f74" opacity="0.55"/><rect x="909" y="167.04" width="26" height="34.56" rx="9" fill="#4a57c8" opacity="0.55"/><rect x="956" y="48" width="40" height="192" rx="14" fill="rgba(5,5,6,0.05)" stroke="rgba(5,5,6,0.11)" stroke-width="1"/><rect x="963" y="71.04" width="26" height="49.92" rx="9" fill="#0e8f74" opacity="0.55"/><rect x="963" y="132.48" width="26" height="49.92" rx="9" fill="#4a57c8" opacity="0.55"/><rect x="1010" y="48" width="40" height="192" rx="14" fill="rgba(5,5,6,0.05)" stroke="#4a57c8" stroke-width="1.5"/><rect x="1017" y="59.52" width="26" height="42.24" rx="9" fill="#6d79e0" opacity="0.95"/><rect x="1017" y="113.28" width="26" height="61.44" rx="9" fill="#4a57c8" opacity="0.95"/><rect x="1017" y="186.24" width="26" height="44.16" rx="9" fill="#6d79e0" opacity="0.95"/><rect x="1064" y="48" width="40" height="192" rx="14" fill="rgba(5,5,6,0.05)" stroke="rgba(5,5,6,0.11)" stroke-width="1"/><rect x="1071" y="67.2" width="26" height="44.16" rx="9" fill="#4a57c8" opacity="0.55"/><rect x="1071" y="124.8" width="26" height="34.56" rx="9" fill="#0e8f74" opacity="0.55"/><rect x="1071" y="170.88" width="26" height="46.08" rx="9" fill="#6d79e0" opacity="0.55"/><rect x="1118" y="48" width="40" height="192" rx="14" fill="rgba(5,5,6,0.05)" stroke="rgba(5,5,6,0.11)" stroke-width="1"/><rect x="1125" y="82.56" width="26" height="53.76" rx="9" fill="#0e8f74" opacity="0.55"/><rect x="1125" y="151.68" width="26" height="38.4" rx="9" fill="#6d79e0" opacity="0.55"/><rect x="1172" y="48" width="40" height="192" rx="14" fill="rgba(5,5,6,0.05)" stroke="rgba(5,5,6,0.11)" stroke-width="1"/><rect x="1179" y="90.24" width="26" height="53.76" rx="9" fill="#4a57c8" opacity="0.55"/><rect x="1179" y="159.36" width="26" height="49.92" rx="9" fill="#0e8f74" opacity="0.55"/><line x1="834" y1="159.36" x2="1214" y2="159.36" stroke="#4a57c8" stroke-width="1.5" opacity="0.55" stroke-dasharray="4 5"/><circle cx="1030" cy="159.36" r="5" fill="#4a57c8"/></g>
  <g transform="translate(64 74) scale(1.62) translate(-64 -48)">
  <rect x="64" y="48" width="84" height="84" rx="22" fill="#171b26"/>
  <rect x="64.5" y="48.5" width="83" height="83" rx="21.5" fill="none" stroke="rgba(255,255,255,0.10)"/>
  <rect x="77" y="78" width="14" height="38" rx="7" fill="#7b88e8"/><rect x="99" y="64" width="14" height="52" rx="7" fill="#9aa6ff"/><rect x="121" y="72" width="14" height="44" rx="7" fill="#5ecfb0"/></g>

  <text x="232" y="160" font-family="ui-sans-serif,-apple-system,BlinkMacSystemFont,'Segoe UI',Roboto,'Helvetica Neue',Arial,sans-serif" font-size="88" font-weight="800" letter-spacing="-0.03em" fill="#1f2328">DayTandem</text>
  <text x="236" y="212" font-family="ui-sans-serif,-apple-system,BlinkMacSystemFont,'Segoe UI',Roboto,'Helvetica Neue',Arial,sans-serif" font-size="30" fill="#57606a">A local-first day planner</text>
  <text x="236" y="250" font-family="ui-sans-serif,-apple-system,BlinkMacSystemFont,'Segoe UI',Roboto,'Helvetica Neue',Arial,sans-serif" font-size="30" fill="#57606a">for Windows and macOS.</text>
  
    <g>
      <rect x="236" y="280" width="248" height="46" rx="14" fill="rgba(5,5,6,0.04)" stroke="rgba(5,5,6,0.22499999999999998)"/>
      <circle cx="261" cy="303" r="5" fill="#4a57c8"/>
      <text x="278" y="310" font-family="ui-monospace,SFMono-Regular,Menlo,Consolas,'Liberation Mono',monospace" font-size="20" letter-spacing="0.04em" fill="#1f2328">GOOGLE CALENDAR</text>
    </g>
    <g>
      <rect x="496" y="280" width="210.8" height="46" rx="14" fill="rgba(5,5,6,0.04)" stroke="rgba(5,5,6,0.22499999999999998)"/>
      <circle cx="521" cy="303" r="5" fill="#4a57c8"/>
      <text x="538" y="310" font-family="ui-monospace,SFMono-Regular,Menlo,Consolas,'Liberation Mono',monospace" font-size="20" letter-spacing="0.04em" fill="#1f2328">MULTILINGUAL</text>
    </g>

  <rect x="0.5" y="0.5" width="1279" height="399" rx="19.5" fill="none" stroke="rgba(5,5,6,0.3)"/>
</svg>
